<svg width="72" height="72" viewBox="0 0 72 72" fill="none" xmlns="http://www.w3.org/2000/svg">
<path d="M42 66C25.431 66 12 52.569 12 36C12 19.431 25.431 6 42 6C58.569 6 72 19.431 72 36C72 52.569 58.569 66 42 66ZM39 45V51H45V45H39ZM45 40.065C47.411 39.3383 49.4808 37.7699 50.8325 35.6452C52.1841 33.5206 52.7277 30.9812 52.3642 28.4894C52.0007 25.9976 50.7543 23.7193 48.852 22.0694C46.9498 20.4194 44.5181 19.5076 42 19.5C39.5726 19.4998 37.22 20.3405 35.3424 21.879C33.4648 23.4175 32.178 25.5589 31.701 27.939L37.587 29.118C37.754 28.2823 38.155 27.5112 38.7431 26.8944C39.3312 26.2777 40.0824 25.8406 40.9093 25.6341C41.7361 25.4276 42.6046 25.4601 43.4137 25.7279C44.2227 25.9957 44.9391 26.4877 45.4795 27.1467C46.0199 27.8058 46.362 28.6047 46.466 29.4505C46.5701 30.2964 46.4318 31.1544 46.0673 31.9247C45.7028 32.6951 45.127 33.3461 44.407 33.802C43.6869 34.2579 42.8522 34.4999 42 34.5C41.2043 34.5 40.4413 34.8161 39.8787 35.3787C39.3161 35.9413 39 36.7043 39 37.5V42H45V40.065Z" fill="#99A6EF"/>
</svg>
