<svg width="40" height="40" viewBox="0 0 40 40" fill="none" xmlns="http://www.w3.org/2000/svg">
<path d="M40 33.3333C40 37 37 40 33.3333 40H6.66667C3 40 0 37 0 33.3333V6.66667C0 3 3 0 6.66667 0H33.3333C37 0 40 3 40 6.66667V33.3333Z" fill="#4FD1D9"/>
<path d="M5.40002 20.066C5.40002 18.7458 5.62006 17.6897 6.06013 16.7656C6.42685 16.1055 6.86692 15.5114 7.45367 14.9833C8.04043 14.4553 8.70053 14.0592 9.43398 13.8612C10.3875 13.5312 11.4876 13.3331 12.6611 13.3331C14.8615 13.3331 16.6951 13.9272 18.0153 15.0494C19.3355 16.2375 19.9956 17.8217 19.9956 19.934C19.9956 21.9803 19.3355 23.6305 18.0153 24.7526C16.7684 26.0068 15.0082 26.6009 12.7345 26.6009C10.4608 26.6009 8.70053 26.0068 7.38033 24.8847C6.06013 23.6965 5.40002 22.1123 5.40002 20.066ZM8.55384 20C8.55384 21.4522 8.92057 22.5083 9.72736 23.3005C10.5341 24.0265 11.4876 24.4226 12.7345 24.4226C13.9813 24.4226 14.9348 24.0265 15.7416 23.3005C16.5484 22.5744 16.9151 21.4522 16.9151 20C16.9151 18.5478 16.5484 17.4257 15.7416 16.6996C14.9348 15.9735 13.9813 15.6434 12.7345 15.6434C11.4876 15.6434 10.4608 16.0395 9.72736 16.7656C8.92057 17.4257 8.55384 18.5478 8.55384 20Z" fill="white"/>
<path d="M21.5359 26.6009V13.3992H24.4697V19.274L30.4106 13.3992H34.3712L28.8704 18.5479L34.7379 26.6009H30.924L26.89 20.3961L24.4697 22.6404V26.6009H21.5359Z" fill="white"/>
</svg>
