<svg width="293" height="356" viewBox="0 0 293 356" fill="none" xmlns="http://www.w3.org/2000/svg">
<path d="M291.821 354.82V297.32V239.821L255.321 260.423L291.821 354.82Z" fill="black"/>
<path d="M255.321 260.423L218.822 281.025L291.821 354.82L255.321 260.423Z" fill="black"/>
<path d="M179.322 303.32L291.821 354.82L218.822 281.025L179.322 303.32Z" fill="black"/>
<path d="M125.322 20.3206C90.8215 -32.6796 -25.6785 34.8204 15.8215 85.3205L51.8215 63.9507L88.5715 42.1356L125.322 20.3206Z" fill="black"/>
<path d="M15.8215 85.3205L179.322 303.32M15.8215 85.3205C-25.6785 34.8204 90.8215 -32.6796 125.322 20.3206M15.8215 85.3205L51.8215 63.9507M179.322 303.32L291.821 354.82M179.322 303.32L218.822 281.025M291.821 354.82V297.32V239.821M291.821 354.82L255.321 260.423M291.821 354.82L218.822 281.025M291.821 354.82H0M291.821 239.821L208.572 130.071L125.322 20.3206M291.821 239.821L255.321 260.423M125.322 20.3206L88.5715 42.1356M51.8215 63.9507L218.822 281.025M51.8215 63.9507L88.5715 42.1356M218.822 281.025L255.321 260.423M88.5715 42.1356L255.321 260.423" stroke="black" stroke-width="2"/>
</svg>
